<svg width="191" height="97" viewBox="0 0 191 97" fill="none" xmlns="http://www.w3.org/2000/svg">
<path d="M0.756104 44.9659V0.825302H12.4576C21.3272 0.825302 27.5758 6.71491 27.5758 15.0477C27.5758 17.9352 26.8762 20.0896 25.4103 21.7776C27.8757 24.3282 28.5272 27.5562 28.5272 30.6398C28.5272 38.8394 21.6196 44.9659 13.2239 44.9659H0.759806H0.756104ZM10.218 10.5426V18.2276H13.9864C16.8072 18.2276 18.1621 16.3397 18.1621 14.3851C18.1621 12.5971 16.8072 10.5426 13.9864 10.5426H10.218ZM10.218 26.0347V35.504H13.9864C17.0034 35.504 19.1764 33.6605 19.1764 30.7731C19.1764 28.1337 17.0071 26.0347 13.9864 26.0347H10.218Z" fill="#DDDEDB"/>
<path d="M32.5994 44.9659V0.825317H57.5349V10.4427H42.1871V18.1647H54.3402V27.7561H42.1871V35.504H57.5349V44.9659H32.5994Z" fill="#DDDEDB"/>
<path d="M80.2863 10.439V44.9659H70.6726V10.439H61.6476V0.821609H89.2373V10.439H80.29H80.2863Z" fill="#DDDEDB"/>
<path d="M115.99 44.8623C114.643 45.2139 112.825 45.0918 112.825 45.0918C100.872 45.0918 90.744 35.43 90.744 22.766C90.744 10.1021 101.535 0.821606 112.825 0.821606C112.825 0.821606 114.288 0.773483 115.99 1.07703V10.9461C114.932 10.5833 112.825 10.513 112.825 10.513C106.802 10.513 100.487 15.703 100.487 22.7623C100.487 29.8217 106.058 35.3708 112.825 35.3708C112.825 35.3708 114.787 35.4448 115.99 35.0154V44.8586V44.8623Z" fill="#DDDEDB"/>
<path d="M30.7706 53.6245V95.4144H22.1491V79.0561H9.13346V95.4144H0.511902V53.6245H9.13346V69.9829H22.1491V53.6245H30.7706Z" fill="#DDDEDB"/>
<path d="M61.4403 95.4144L59.2932 89.3249H44.2786L42.1316 95.4144H33.5396L48.421 53.6245H55.2064L70.0359 95.4144H61.444H61.4403ZM47.5806 80.2481H56.043L51.8118 66.7771L47.5806 80.2481Z" fill="#DDDEDB"/>
<path d="M114.976 95.4144L112.829 89.3249H97.8144L95.6674 95.4144H87.0754L101.957 53.6245H108.742L123.572 95.4144H114.98H114.976ZM101.116 80.2481H109.579L105.348 66.7771L101.116 80.2481Z" fill="#DDDEDB"/>
<path d="M70.3395 53.6245L78.5539 81.1809L86.7682 53.6245H95.2565L81.8929 95.4144H75.2111L61.8475 53.6245H70.3358H70.3395Z" fill="#DDDEDB"/>
<path d="M130.953 83.8314C131.238 85.7416 133.052 87.0557 134.981 87.0557C137.195 87.0557 138.949 85.4454 138.949 83.1762C138.949 80.907 137.191 79.0561 134.981 79.0561C128.232 79.0561 122.391 73.085 122.391 65.9812C122.391 58.8774 128.232 52.9063 134.981 52.9063C140.256 52.9063 144.905 56.4897 146.719 61.4428L138.834 65.2038C138.494 63.2937 136.906 61.9795 134.977 61.9795C132.763 61.9795 131.009 63.712 131.009 65.9812C131.009 68.2504 132.767 69.9792 134.977 69.9792C141.726 69.9792 147.567 76.0687 147.567 83.1725C147.567 90.2763 141.726 96.1289 134.977 96.1289C129.591 96.1289 124.882 92.6084 123.124 87.5925L130.95 83.8314H130.953Z" fill="#DDDEDB"/>
<path d="M65.5381 83.1078C63.5621 83.1078 61.6811 82.4998 60.1231 81.1508L61.9471 78.6618C63.0301 79.5548 64.2651 80.1628 65.5571 80.1628C66.4691 80.1628 66.9441 79.7638 66.9441 79.1938V79.1748C66.9441 78.6428 66.5451 78.3198 64.9871 77.7688C62.4791 76.9138 60.7121 76.0018 60.7121 73.5888V73.5318C60.7121 71.1188 62.5551 69.4278 65.4621 69.4278C67.2481 69.4278 68.8251 69.9218 70.2121 71.0428L68.4831 73.5888C67.5711 72.8858 66.4691 72.3728 65.3861 72.3728C64.6071 72.3728 64.1701 72.7528 64.1701 73.2468V73.2658C64.1701 73.8548 64.5881 74.1588 66.2791 74.7858C68.8061 75.6028 70.3831 76.6288 70.3831 78.8898V78.9278C70.3831 81.5118 68.3881 83.1078 65.5381 83.1078ZM74.1803 82.9178V72.6958H70.8933V69.6178H80.8873V72.6958H77.6003V82.9178H74.1803ZM87.507 83.1458C84.258 83.1458 82.13 81.4358 82.13 77.6548V69.6178H85.569V77.6928C85.569 79.2888 86.348 80.0488 87.526 80.0488C88.723 80.0488 89.483 79.3268 89.483 77.7498V69.6178H92.941V77.5978C92.941 81.4548 90.756 83.1458 87.507 83.1458ZM94.7874 82.9178V69.6178H99.1574C103.432 69.6178 105.864 72.2018 105.864 76.1158V76.3438C105.864 80.2578 103.413 82.9178 99.1004 82.9178H94.7874ZM99.1954 72.6768H98.2074V79.8588H99.1954C101.095 79.8588 102.368 78.7378 102.368 76.3628V76.1918C102.368 73.7978 101.095 72.6768 99.1954 72.6768ZM107.517 82.9178V69.6178H110.937V82.9178H107.517ZM118.766 83.1648C115.175 83.1648 112.61 80.4098 112.61 76.4198V76.1348C112.61 72.1638 115.213 69.3708 118.785 69.3708C122.376 69.3708 124.941 72.1258 124.941 76.1158V76.4008C124.941 80.3718 122.338 83.1648 118.766 83.1648ZM118.785 80.0678C120.381 80.0678 121.445 78.6808 121.445 76.3818V76.1728C121.445 73.8738 120.343 72.4678 118.766 72.4678C117.189 72.4678 116.106 73.8548 116.106 76.1538V76.3628C116.106 78.6618 117.208 80.0678 118.785 80.0678ZM131.518 82.9178V69.6178H133.722V75.2038H138.947V69.6178H141.151V82.9178H138.947V77.2558H133.722V82.9178H131.518ZM143.036 82.9178L147.919 69.5418H150.047L154.93 82.9178H152.631L151.529 79.7828H146.361L145.259 82.9178H143.036ZM147.045 77.8258H150.845L148.945 72.4868L147.045 77.8258ZM159.008 82.9938L154.391 69.6178H156.785L160.053 79.6688L163.321 69.6178H165.639L161.041 82.9938H159.008ZM165.06 82.9178L169.943 69.5418H172.071L176.954 82.9178H174.655L173.553 79.7828H168.385L167.283 82.9178H165.06ZM169.069 77.8258H172.869L170.969 72.4868L169.069 77.8258ZM182.559 83.0888C180.849 83.0888 179.196 82.4998 177.752 81.1698L179.082 79.5168C180.07 80.4098 181.172 81.0938 182.578 81.0938C183.851 81.0938 184.668 80.3908 184.668 79.4028V79.3838C184.668 78.5478 184.231 77.9968 182.122 77.2178C179.595 76.2678 178.284 75.3368 178.284 73.2088V73.1708C178.284 70.9858 180.032 69.4468 182.502 69.4468C184.041 69.4468 185.466 69.9408 186.682 71.0048L185.428 72.6958C184.516 71.9548 183.509 71.4418 182.445 71.4418C181.248 71.4418 180.507 72.1068 180.507 72.9808V72.9998C180.507 73.9308 181.001 74.4248 183.262 75.2988C185.732 76.2488 186.872 77.2748 186.872 79.2128V79.2508C186.872 81.5878 185.048 83.0888 182.559 83.0888Z" fill="black"/>
</svg>
